# xmcd CD database file
#
# Track frame offsets:
#	150
#	22935
#	31557
#	40390
#	45487
#	61385
#	68585
#	93407
#	110670
#	121215
#	137595
#	148157
#	153180
#	169322
#	177385
#	180986
#	199175
#	202790
#	207612
#	209037
#	214155
#	234995
#
# Disc length: 3884 seconds
#
# Revision: 0
# Processed by: cddbd v1.5.1PL0 Copyright (c) Steve Scherf et al.
# Submitted via: CDex 1.51
#
DISCID=3a0f2a16
DTITLE=高田雅史 - Michigan Original Sound Track
DYEAR=2004
DGENRE=General Soundtrack
TTITLE0=Chicago Skyline In The Fog
TTITLE1=Frozen Lake
TTITLE2=The Gate To Chicago City
TTITLE3=Lake Michigan Hazards
TTITLE4=Encounter
TTITLE5=Subjective
TTITLE6=Blackout
TTITLE7=福田淳 - Haunted Buildings
TTITLE8=Objective
TTITLE9=Drive With Phantoms
TTITLE10=Tellin' Stories
TTITLE11=Blowin' In The Breeze
TTITLE12=Memorize-X
TTITLE13=Chicago Lake Breeze Effect
TTITLE14=I Believe In The Holy Ghost
TTITLE15=Counter
TTITLE16=909 Miles [Club Gotch Mix]
TTITLE17=Up At The Lake Michigan
TTITLE18=Death Goes On
TTITLE19=Sunday Evening Standard
TTITLE20=Pizzicato Of Fear
TTITLE21=909 Miles [Play With Ero Terrorist Mix]
EXTD=YEAR: 2004
EXTT0=
EXTT1=
EXTT2=
EXTT3=
EXTT4=
EXTT5=
EXTT6=
EXTT7=
EXTT8=
EXTT9=
EXTT10=
EXTT11=
EXTT12=
EXTT13=
EXTT14=
EXTT15=
EXTT16=
EXTT17=
EXTT18=
EXTT19=
EXTT20=
EXTT21=
PLAYORDER=
